<svg width="351" height="163" viewBox="0 0 351 163" fill="none" xmlns="http://www.w3.org/2000/svg">
<path d="M124.706 80.75C124.706 92.99 120.836 103.61 113.096 112.61L122.816 122.735L109.586 134.48L99.3259 123.815C92.0359 127.865 84.1159 129.89 75.5659 129.89C61.9759 129.89 50.4109 125.165 40.8709 115.715C31.3309 106.175 26.5609 94.52 26.5609 80.75C26.5609 66.98 31.3309 55.37 40.8709 45.92C50.4109 36.38 61.9759 31.61 75.5659 31.61C89.1559 31.61 100.721 36.38 110.261 45.92C119.891 55.37 124.706 66.98 124.706 80.75ZM75.5659 111.665C79.0759 111.665 82.5859 111.08 86.0959 109.91L70.5709 93.71L83.8009 81.965L100.406 99.245C104.186 93.845 106.076 87.68 106.076 80.75C106.076 71.75 103.151 64.325 97.3009 58.475C91.4509 52.625 84.2059 49.7 75.5659 49.7C66.9259 49.7 59.6809 52.625 53.8309 58.475C47.9809 64.325 45.0559 71.75 45.0559 80.75C45.0559 89.66 47.9809 97.04 53.8309 102.89C59.6809 108.74 66.9259 111.665 75.5659 111.665Z" fill="white"/>
<path d="M184.899 60.5H202.314V128H184.899V120.44C180.669 126.74 173.964 129.89 164.784 129.89C157.404 129.89 151.284 127.415 146.424 122.465C141.654 117.515 139.269 110.675 139.269 101.945V60.5H156.684V99.785C156.684 104.285 157.899 107.75 160.329 110.18C162.759 112.52 165.999 113.69 170.049 113.69C174.549 113.69 178.149 112.295 180.849 109.505C183.549 106.715 184.899 102.53 184.899 96.95V60.5ZM259.574 77.24H244.319V105.32C244.319 107.66 244.904 109.37 246.074 110.45C247.244 111.53 248.954 112.16 251.204 112.34C253.454 112.43 256.244 112.385 259.574 112.205V128C247.604 129.35 239.144 128.225 234.194 124.625C229.334 121.025 226.904 114.59 226.904 105.32V77.24H215.159V60.5H226.904V46.865L244.319 41.6V60.5H259.574V77.24ZM310.526 77.24H295.271V105.32C295.271 107.66 295.856 109.37 297.026 110.45C298.196 111.53 299.906 112.16 302.156 112.34C304.406 112.43 307.196 112.385 310.526 112.205V128C298.556 129.35 290.096 128.225 285.146 124.625C280.286 121.025 277.856 114.59 277.856 105.32V77.24H266.111V60.5H277.856V46.865L295.271 41.6V60.5H310.526V77.24ZM334.145 52.4C331.265 52.4 328.745 51.365 326.585 49.295C324.515 47.135 323.48 44.615 323.48 41.735C323.48 38.855 324.515 36.335 326.585 34.175C328.745 32.015 331.265 30.935 334.145 30.935C337.115 30.935 339.635 32.015 341.705 34.175C343.865 36.335 344.945 38.855 344.945 41.735C344.945 44.615 343.865 47.135 341.705 49.295C339.635 51.365 337.115 52.4 334.145 52.4ZM325.505 128V60.5H342.92V128H325.505Z" fill="black"/>
<circle cx="62.5" cy="66.5" r="50.5" fill="white" stroke="#3D3D3D" stroke-width="24"/>
<g clip-path="url(#clip0)">
<circle cx="62.5" cy="124.5" r="49.5" stroke="#FECC19" stroke-width="26"/>
</g>
<defs>
<clipPath id="clip0">
<rect width="63" height="67" fill="white" transform="translate(63 62)"/>
</clipPath>
</defs>
</svg>
